<svg preserveAspectRatio="none" overflow="visible" style="display: block;" width="266.001" height="254.601" viewBox="0 0 266.001 254.601" fill="none" xmlns="http://www.w3.org/2000/svg">
<g id="Group 1948758460">
<g id="Group 1948758459">
<mask id="mask0_0_4" style="mask-type:alpha" maskUnits="userSpaceOnUse" x="15" y="171" width="252" height="84">
<ellipse id="Ellipse 17" cx="140.601" cy="212.801" rx="125.4" ry="41.8" fill="#D9D9D9"/>
</mask>
<g mask="url(#mask0_0_4)">
<path id="Ellipse 15" d="M140.602 171.501C175.191 171.501 206.485 176.175 229.114 183.718C240.431 187.491 249.554 191.971 255.837 196.922C262.125 201.878 265.501 207.248 265.501 212.8C265.501 218.353 262.126 223.722 255.837 228.678C249.554 233.63 240.431 238.111 229.114 241.883C206.485 249.427 175.191 254.1 140.602 254.1C106.012 254.1 74.7174 249.427 52.0879 241.883C40.7706 238.111 31.6482 233.63 25.3652 228.678C19.0766 223.722 15.7012 218.353 15.7012 212.8C15.7013 207.248 19.0767 201.878 25.3652 196.922C31.6481 191.971 40.7708 187.491 52.0879 183.718C74.7174 176.175 106.012 171.501 140.602 171.501Z" stroke="white"/>
<path id="Ellipse 16" d="M140.602 182.901C175.191 182.901 206.485 187.575 229.114 195.118C240.431 198.891 249.554 203.371 255.837 208.323C262.125 213.278 265.501 218.648 265.501 224.2C265.501 229.753 262.126 235.122 255.837 240.078C249.554 245.03 240.431 249.511 229.114 253.283C206.485 260.827 175.191 265.5 140.602 265.5C106.012 265.5 74.7174 260.827 52.0879 253.283C40.7706 249.511 31.6482 245.03 25.3652 240.078C19.0766 235.122 15.7012 229.753 15.7012 224.2C15.7013 218.648 19.0767 213.278 25.3652 208.323C31.6481 203.371 40.7708 198.891 52.0879 195.118C74.7174 187.575 106.012 182.901 140.602 182.901Z" stroke="white"/>
</g>
</g>
<circle id="Ellipse 14" cx="145.029" cy="167.605" r="58.4001" fill="#010101" stroke="white"/>
<g id="Group 1948758458">
<g id="Union">
<mask id="path-5-inside-1_0_4" fill="white">
<path d="M116.549 40.8482C179.058 18.9405 235.644 16.9601 245.536 35.9089L245.669 35.8623L251.953 53.793L251.822 53.8392C255.921 74.8179 210.48 108.595 147.973 130.502C85.4651 152.409 28.8808 154.389 18.9866 135.442L18.8548 135.488L13.2327 119.446C13.2212 119.414 13.2083 119.383 13.197 119.35C13.1856 119.318 13.1757 119.285 13.1646 119.252L12.5706 117.557L12.7005 117.512C8.59974 96.533 54.0408 62.7557 116.549 40.8482Z"/>
</mask>
<path d="M116.549 40.8482C179.058 18.9405 235.644 16.9601 245.536 35.9089L245.669 35.8623L251.953 53.793L251.822 53.8392C255.921 74.8179 210.48 108.595 147.973 130.502C85.4651 152.409 28.8808 154.389 18.9866 135.442L18.8548 135.488L13.2327 119.446C13.2212 119.414 13.2083 119.383 13.197 119.35C13.1856 119.318 13.1757 119.285 13.1646 119.252L12.5706 117.557L12.7005 117.512C8.59974 96.533 54.0408 62.7557 116.549 40.8482Z" fill="#010101"/>
<path d="M116.549 40.8482L116.219 39.9044V39.9044L116.549 40.8482ZM245.536 35.9089L244.65 36.3717L245.051 37.1388L245.867 36.8526L245.536 35.9089ZM245.669 35.8623L246.613 35.5316L246.282 34.5879L245.338 34.9186L245.669 35.8623ZM251.953 53.793L252.284 54.7367L253.228 54.406L252.897 53.4623L251.953 53.793ZM251.822 53.8392L251.491 52.8955L250.674 53.1817L250.84 54.031L251.822 53.8392ZM147.973 130.502L148.303 131.445V131.445L147.973 130.502ZM18.9866 135.442L19.873 134.979L19.4725 134.212L18.6559 134.498L18.9866 135.442ZM18.8548 135.488L17.9111 135.819L18.2418 136.762L19.1856 136.432L18.8548 135.488ZM13.2327 119.446L14.1765 119.116L14.1738 119.108L13.2327 119.446ZM13.197 119.35L12.2533 119.681L12.2533 119.681L13.197 119.35ZM13.1646 119.252L14.1109 118.929L14.1083 118.921L13.1646 119.252ZM12.5706 117.557L12.2398 116.613L11.2961 116.944L11.6269 117.888L12.5706 117.557ZM12.7005 117.512L13.0313 118.455L13.848 118.169L13.682 117.32L12.7005 117.512ZM116.549 40.8482L116.88 41.7919C148.065 30.8625 177.738 24.917 200.811 24.0567C212.352 23.6263 222.194 24.4702 229.731 26.5692C237.293 28.6751 242.364 31.9933 244.65 36.3717L245.536 35.9089L246.423 35.4461C243.762 30.35 238.051 26.81 230.267 24.6425C222.459 22.4681 212.393 21.6234 200.737 22.058C177.417 22.9276 147.543 28.9262 116.219 39.9044L116.549 40.8482ZM245.536 35.9089L245.867 36.8526L246 36.8061L245.669 35.8623L245.338 34.9186L245.206 34.9651L245.536 35.9089ZM245.669 35.8623L244.725 36.1931L251.01 54.1238L251.953 53.793L252.897 53.4623L246.613 35.5316L245.669 35.8623ZM251.953 53.793L251.623 52.8493L251.491 52.8955L251.822 53.8392L252.152 54.7829L252.284 54.7367L251.953 53.793ZM251.822 53.8392L250.84 54.031C251.787 58.8783 249.897 64.6364 245.304 71.0023C240.726 77.3473 233.564 84.1501 224.28 91.0183C205.718 104.75 178.826 118.629 147.642 129.558L147.973 130.502L148.303 131.445C179.627 120.467 206.709 106.504 225.469 92.6262C234.846 85.6895 242.183 78.7455 246.926 72.1725C251.653 65.6204 253.905 59.2894 252.803 53.6474L251.822 53.8392ZM147.973 130.502L147.642 129.558C116.458 140.487 86.7854 146.432 63.7123 147.293C52.1717 147.723 42.3303 146.879 34.7929 144.781C27.2307 142.675 22.1592 139.357 19.873 134.979L18.9866 135.442L18.1002 135.905C20.7611 141 26.473 144.54 34.2564 146.707C42.0646 148.882 52.1312 149.726 63.7869 149.292C87.1064 148.422 116.98 142.423 148.303 131.445L147.973 130.502ZM18.9866 135.442L18.6559 134.498L18.5241 134.544L18.8548 135.488L19.1856 136.432L19.3174 136.385L18.9866 135.442ZM18.8548 135.488L19.7985 135.157L14.1765 119.116L13.2327 119.446L12.289 119.777L17.9111 135.819L18.8548 135.488ZM13.2327 119.446L14.1738 119.108C14.1642 119.081 14.1542 119.055 14.1494 119.043C14.1432 119.026 14.1414 119.022 14.1407 119.02L13.197 119.35L12.2533 119.681C12.2638 119.711 12.2742 119.738 12.2802 119.754C12.2875 119.773 12.2898 119.779 12.2916 119.785L13.2327 119.446ZM13.197 119.35L14.1407 119.02C14.1399 119.017 14.1382 119.012 14.1328 118.995C14.1286 118.982 14.1201 118.956 14.1109 118.929L13.1646 119.252L12.2183 119.575C12.2202 119.581 12.2222 119.587 12.2286 119.607C12.2338 119.623 12.2427 119.651 12.2533 119.681L13.197 119.35ZM13.1646 119.252L14.1083 118.921L13.5143 117.226L12.5706 117.557L11.6269 117.888L12.2209 119.583L13.1646 119.252ZM12.5706 117.557L12.9013 118.501L13.0313 118.455L12.7005 117.512L12.3698 116.568L12.2398 116.613L12.5706 117.557ZM12.7005 117.512L13.682 117.32C12.7344 112.472 14.6246 106.714 19.2176 100.348C23.7954 94.0034 30.9568 87.2005 40.2412 80.3322C58.8032 66.6004 85.6956 52.7212 116.88 41.7919L116.549 40.8482L116.219 39.9044C84.8945 50.8827 57.8121 64.8459 39.0517 78.7243C29.6748 85.6611 22.338 92.6052 17.5957 99.1783C12.8684 105.73 10.6163 112.062 11.7191 117.703L12.7005 117.512Z" fill="white" mask="url(#path-5-inside-1_0_4)"/>
</g>
<path id="Ellipse 12" d="M116.715 41.32C148.863 30.0528 179.425 24.0695 202.839 23.4932C214.55 23.205 224.443 24.2704 231.845 26.6839C239.255 29.1003 244.076 32.8349 245.824 37.8209C247.571 42.8068 246.136 48.7332 241.855 55.247C237.58 61.7531 230.516 68.7614 221.188 75.8465C202.537 90.0132 174.926 104.418 142.778 115.685C110.629 126.952 80.0671 132.935 56.6527 133.512C44.9426 133.8 35.0493 132.735 27.6476 130.321C20.2372 127.905 15.4164 124.171 13.6688 119.185C11.9214 114.199 13.3562 108.272 17.637 101.758C21.9126 95.2518 28.9763 88.2435 38.3043 81.1584C56.9556 66.9917 84.5659 52.5873 116.715 41.32Z" fill="#010101" stroke="white"/>
</g>
</g>
</svg>
